<?xml version="1.0" encoding="UTF-8"?>
<svg width="243px" height="471px" viewBox="0 0 243 471" version="1.1" xmlns="http://www.w3.org/2000/svg" xmlns:xlink="http://www.w3.org/1999/xlink">
    <!-- Generator: sketchtool 52 (66869) - http://www.bohemiancoding.com/sketch -->
    <title>C5D887CA-12D2-44F4-B4AE-C13780434016</title>
    <desc>Created with sketchtool.</desc>
    <g id="Page-1" stroke="none" stroke-width="1" fill="none" fill-rule="evenodd" stroke-linecap="square">
        <g id="Main" transform="translate(-924.000000, -258.000000)" fill-rule="nonzero" stroke="#FF351B" stroke-width="2">
            <g id="Big-image" transform="translate(0.000000, 145.000000)">
                <g id="Group-7" transform="translate(924.000000, 114.000000)">
                    <path d="M1.5,330.5 L1.5,384.5" id="Line-11"></path>
                    <path d="M1.5,414.5 L1.5,468.5" id="Line-11-Copy"></path>
                    <path d="M41.5,300.5 L41.5,354.5" id="Line-11-Copy-3"></path>
                    <path d="M41.5,384.5 L41.5,438.5" id="Line-11-Copy-2"></path>
                    <path d="M81.5,270.5 L81.5,324.5" id="Line-11-Copy-5"></path>
                    <path d="M81.5,354.5 L81.5,408.5" id="Line-11-Copy-4"></path>
                    <path d="M121.5,240.5 L121.5,294.5" id="Line-11-Copy-7"></path>
                    <path d="M121.5,324.5 L121.5,378.5" id="Line-11-Copy-6"></path>
                    <path d="M121.5,80.5 L121.5,134.5" id="Line-11-Copy-9"></path>
                    <path d="M121.5,164.5 L121.5,218.5" id="Line-11-Copy-8"></path>
                    <path d="M161.5,60.5 L161.5,114.5" id="Line-11-Copy-11"></path>
                    <path d="M161.5,144.5 L161.5,198.5" id="Line-11-Copy-10"></path>
                    <path d="M201.5,30.5 L201.5,84.5" id="Line-11-Copy-13"></path>
                    <path d="M201.5,114.5 L201.5,168.5" id="Line-11-Copy-12"></path>
                    <path d="M241.5,0.5 L241.5,54.5" id="Line-11-Copy-15"></path>
                    <path d="M241.5,84.5 L241.5,138.5" id="Line-11-Copy-14"></path>
                </g>
            </g>
        </g>
    </g>
</svg>