<svg xmlns="http://www.w3.org/2000/svg" xmlns:xlink="http://www.w3.org/1999/xlink"><symbol id="icon-arrow-bottom" viewBox="0 0 17 10">
    <!-- Generator: sketchtool 52 (66869) - http://www.bohemiancoding.com/sketch -->
    <title>360F352A-0289-4775-8790-FDB15F31CDB7</title>
    <desc>Created with sketchtool.</desc>
    <g id="Page-1" stroke="none" stroke-width="1" fill="none" fill-rule="evenodd" stroke-linecap="square">
        <g id="Main" transform="translate(-1174.000000, -949.000000)" fill-rule="nonzero" stroke="#FF351B" stroke-width="2">
            <g id="&#x41D;&#x430;&#x43F;&#x440;&#x430;&#x432;&#x43B;&#x435;&#x43D;&#x438;&#x44F;" transform="translate(76.000000, 925.000000)">
                <g id="Group-8" transform="translate(1099.000000, 25.000000)">
                    <path d="M0.5,0.5 L7.57106781,7.57106781" id="Line-9"/>
                    <path d="M7.5,7.5 L14.5710678,0.428932188" id="Line-10"/>
                </g>
            </g>
        </g>
    </g>
</symbol><symbol id="icon-arrow-left" viewBox="0 0 13 22">
    <!-- Generator: sketchtool 52 (66869) - http://www.bohemiancoding.com/sketch -->
    <title>9410A8DE-4CC5-42BB-8770-C28C685B065E</title>
    <desc>Created with sketchtool.</desc>
    <g id="Page-1" stroke="none" stroke-width="1" fill="none" fill-rule="evenodd" stroke-linecap="square">
        <g id="Main-[320]" transform="translate(-8.000000, -1198.000000)" fill-rule="nonzero" stroke="#FF351B" stroke-width="2.4">
            <g id="&#x41A;&#x43E;&#x43C;&#x430;&#x43D;&#x434;&#x430;" transform="translate(10.000000, 1046.000000)">
                <g id="Arrow" transform="translate(4.800000, 162.700000) scale(-1, 1) translate(-4.800000, -162.700000) translate(0.000000, 153.400000)">
                    <path d="M0.280063575,0.280063575 L9.31873173,9.31873173" id="Line-5"/>
                    <path d="M0.280063575,9.28006357 L9.31873173,18.3187317" id="Line-5-Copy" transform="translate(4.800000, 13.800000) scale(1, -1) translate(-4.800000, -13.800000) "/>
                </g>
            </g>
        </g>
    </g>
</symbol><symbol id="icon-arrow-right" viewBox="0 0 13 22">
    <!-- Generator: sketchtool 52 (66869) - http://www.bohemiancoding.com/sketch -->
    <title>F881FE42-86C2-4AC9-AD25-1E1E4FCC15D3</title>
    <desc>Created with sketchtool.</desc>
    <g id="Page-1" stroke="none" stroke-width="1" fill="none" fill-rule="evenodd" stroke-linecap="square">
        <g id="Main-[320]" transform="translate(-298.000000, -2393.000000)" fill-rule="nonzero" stroke="#FF351B" stroke-width="2.4">
            <g id="&#x41E;&#x442;&#x437;&#x44B;&#x432;&#x44B;" transform="translate(0.000000, 2297.000000)">
                <g id="Arrow" transform="translate(300.000000, 98.000000)">
                    <path d="M0.280063575,0.280063575 L9.31873173,9.31873173" id="Line-5"/>
                    <path d="M0.280063575,9.28006357 L9.31873173,18.3187317" id="Line-5-Copy" transform="translate(4.800000, 13.800000) scale(1, -1) translate(-4.800000, -13.800000) "/>
                </g>
            </g>
        </g>
    </g>
</symbol><symbol id="icon-facebook" viewBox="0 0 96.124 96.123">
<g>
	<path d="M72.089,0.02L59.624,0C45.62,0,36.57,9.285,36.57,23.656v10.907H24.037c-1.083,0-1.96,0.878-1.96,1.961v15.803
		c0,1.083,0.878,1.96,1.96,1.96h12.533v39.876c0,1.083,0.877,1.96,1.96,1.96h16.352c1.083,0,1.96-0.878,1.96-1.96V54.287h14.654
		c1.083,0,1.96-0.877,1.96-1.96l0.006-15.803c0-0.52-0.207-1.018-0.574-1.386c-0.367-0.368-0.867-0.575-1.387-0.575H56.842v-9.246
		c0-4.444,1.059-6.7,6.848-6.7l8.397-0.003c1.082,0,1.959-0.878,1.959-1.96V1.98C74.046,0.899,73.17,0.022,72.089,0.02z"/>
</g>
<g>
</g>
<g>
</g>
<g>
</g>
<g>
</g>
<g>
</g>
<g>
</g>
<g>
</g>
<g>
</g>
<g>
</g>
<g>
</g>
<g>
</g>
<g>
</g>
<g>
</g>
<g>
</g>
<g>
</g>
</symbol><symbol id="icon-google" viewBox="0 0 475.092 475.092">
<g>
	<g>
		<path d="M273.372,302.498c-5.041-6.762-10.608-13.045-16.7-18.842c-6.091-5.804-12.183-11.088-18.271-15.845
			c-6.092-4.757-11.659-9.329-16.702-13.709c-5.042-4.374-9.135-8.945-12.275-13.702c-3.14-4.757-4.711-9.61-4.711-14.558
			c0-6.855,2.19-13.278,6.567-19.274c4.377-5.996,9.707-11.799,15.986-17.417c6.28-5.617,12.559-11.753,18.844-18.415
			c6.276-6.665,11.604-15.465,15.985-26.412c4.373-10.944,6.563-23.458,6.563-37.542c0-16.75-3.713-32.835-11.136-48.25
			c-7.423-15.418-17.89-27.412-31.405-35.976h38.54L303.2,0H178.441c-17.699,0-35.498,1.906-53.384,5.72
			c-26.453,5.9-48.723,19.368-66.806,40.397C40.171,67.15,31.129,90.99,31.129,117.637c0,28.171,10.138,51.583,30.406,70.233
			c20.269,18.649,44.585,27.978,72.945,27.978c5.71,0,12.371-0.478,19.985-1.427c-0.381,1.521-1.043,3.567-1.997,6.136
			s-1.715,4.62-2.286,6.14c-0.57,1.521-1.047,3.375-1.425,5.566c-0.382,2.19-0.571,4.428-0.571,6.71
			c0,12.563,6.086,26.744,18.271,42.541c-14.465,0.387-28.737,1.67-42.825,3.86c-14.084,2.19-28.833,5.616-44.252,10.28
			c-15.417,4.661-29.217,11.42-41.396,20.27c-12.182,8.854-21.317,19.366-27.408,31.549C3.533,361.559,0.01,374.405,0.01,386.017
			c0,12.751,2.857,24.314,8.565,34.69c5.708,10.369,13.035,18.842,21.982,25.406c8.945,6.57,19.273,12.083,30.978,16.562
			c11.704,4.47,23.315,7.659,34.829,9.562c11.516,1.903,22.888,2.854,34.119,2.854c51.007,0,90.981-12.464,119.909-37.397
			c26.648-23.223,39.971-50.062,39.971-80.517c0-10.855-1.57-20.984-4.712-30.409C282.51,317.337,278.42,309.254,273.372,302.498z
			 M163.311,198.722c-9.707,0-18.937-2.475-27.694-7.426c-8.757-4.95-16.18-11.374-22.27-19.273
			c-6.088-7.898-11.418-16.796-15.987-26.695c-4.567-9.896-7.944-19.792-10.135-29.692c-2.19-9.895-3.284-19.318-3.284-28.265
			c0-18.271,4.854-33.974,14.562-47.108c9.705-13.134,23.411-19.701,41.112-19.701c12.563,0,23.935,3.899,34.118,11.704
			c10.183,7.804,18.177,17.701,23.984,29.692c5.802,11.991,10.277,24.407,13.417,37.257c3.14,12.847,4.711,24.983,4.711,36.403
			c0,19.036-4.139,34.317-12.419,45.833C195.144,192.964,181.775,198.722,163.311,198.722z M242.251,413.123
			c-5.23,8.949-12.319,15.94-21.267,20.981c-8.946,5.048-18.509,8.758-28.693,11.14c-10.183,2.385-20.889,3.572-32.12,3.572
			c-12.182,0-24.27-1.431-36.258-4.284c-11.99-2.851-23.459-7.187-34.403-12.991c-10.944-5.8-19.795-13.798-26.551-23.982
			c-6.757-10.184-10.135-21.744-10.135-34.69c0-11.419,2.568-21.601,7.708-30.55c5.142-8.945,11.709-16.084,19.702-21.408
			c7.994-5.332,17.319-9.713,27.979-13.131c10.66-3.433,20.937-5.808,30.833-7.139c9.895-1.335,19.985-1.995,30.262-1.995
			c6.283,0,11.043,0.191,14.277,0.567c1.143,0.767,4.043,2.759,8.708,5.996s7.804,5.428,9.423,6.57
			c1.615,1.137,4.567,3.326,8.85,6.563c4.281,3.237,7.327,5.661,9.135,7.279c1.803,1.618,4.421,4.045,7.849,7.279
			c3.424,3.237,5.948,6.043,7.566,8.422c1.615,2.378,3.616,5.28,5.996,8.702c2.38,3.433,4.043,6.715,4.998,9.855
			c0.948,3.142,1.854,6.567,2.707,10.277c0.855,3.72,1.283,7.569,1.283,11.57C250.105,393.713,247.487,404.182,242.251,413.123z"/>
		<polygon points="401.998,73.089 401.998,0 365.449,0 365.449,73.089 292.358,73.089 292.358,109.636 365.449,109.636 
			365.449,182.725 401.998,182.725 401.998,109.636 475.081,109.636 475.081,73.089 		"/>
	</g>
</g>
<g>
</g>
<g>
</g>
<g>
</g>
<g>
</g>
<g>
</g>
<g>
</g>
<g>
</g>
<g>
</g>
<g>
</g>
<g>
</g>
<g>
</g>
<g>
</g>
<g>
</g>
<g>
</g>
<g>
</g>
</symbol><symbol id="icon-search" viewBox="0 0 21 20">
    <!-- Generator: sketchtool 52 (66869) - http://www.bohemiancoding.com/sketch -->
    <title>CEF2DC84-F56A-4129-B207-84C4F8B785A1</title>
    <desc>Created with sketchtool.</desc>
    <g id="Page-1" stroke="none" stroke-width="1" fill="none" fill-rule="evenodd">
        <g id="Main" transform="translate(-1182.000000, -106.000000)" fill="#000000" stroke="#000000">
            <g id="Top" transform="translate(78.000000, 15.000000)">
                <g id="Group-3" transform="translate(398.000000, 89.000000)">
                    <g id="Fill-2" transform="translate(707.000000, 3.000000)">
                        <path d="M6.4224392,11.9354992 C3.38239146,11.9354992 0.90938392,9.46244397 0.90938392,6.42244397 C0.90938392,3.38239623 3.38239146,0.909340955 6.4224392,0.909340955 C9.46248693,0.909340955 11.9354945,3.38239623 11.9354945,6.42244397 C11.9354945,9.46244397 9.46248693,11.9354992 6.4224392,11.9354992 Z M11.2705422,10.6276023 C12.2499015,9.49996658 12.8448688,8.02975804 12.8448688,6.42244397 C12.8448688,2.88109221 9.96379095,-3.34170854e-05 6.4224392,-3.34170854e-05 C2.88108744,-3.34170854e-05 9.5477387e-06,2.88109221 9.5477387e-06,6.42244397 C9.5477387e-06,9.96374799 2.88108744,12.8448736 6.4224392,12.8448736 C8.02975327,12.8448736 9.50000955,12.2499063 10.6275975,11.2704992 L18.3206402,18.9636374 L18.9635849,18.3206927 L11.2705422,10.6276023 Z" id="Fill-1"/>
                    </g>
                </g>
            </g>
        </g>
    </g>
</symbol><symbol id="icon-top-slider-lines" viewBox="0 0 243 471">
    <!-- Generator: sketchtool 52 (66869) - http://www.bohemiancoding.com/sketch -->
    <title>C5D887CA-12D2-44F4-B4AE-C13780434016</title>
    <desc>Created with sketchtool.</desc>
    <g id="Page-1" stroke="none" stroke-width="1" fill="none" fill-rule="evenodd" stroke-linecap="square">
        <g id="Main" transform="translate(-924.000000, -258.000000)" fill-rule="nonzero" stroke="#FF351B" stroke-width="2">
            <g id="Big-image" transform="translate(0.000000, 145.000000)">
                <g id="Group-7" transform="translate(924.000000, 114.000000)">
                    <path d="M1.5,330.5 L1.5,384.5" id="Line-11"/>
                    <path d="M1.5,414.5 L1.5,468.5" id="Line-11-Copy"/>
                    <path d="M41.5,300.5 L41.5,354.5" id="Line-11-Copy-3"/>
                    <path d="M41.5,384.5 L41.5,438.5" id="Line-11-Copy-2"/>
                    <path d="M81.5,270.5 L81.5,324.5" id="Line-11-Copy-5"/>
                    <path d="M81.5,354.5 L81.5,408.5" id="Line-11-Copy-4"/>
                    <path d="M121.5,240.5 L121.5,294.5" id="Line-11-Copy-7"/>
                    <path d="M121.5,324.5 L121.5,378.5" id="Line-11-Copy-6"/>
                    <path d="M121.5,80.5 L121.5,134.5" id="Line-11-Copy-9"/>
                    <path d="M121.5,164.5 L121.5,218.5" id="Line-11-Copy-8"/>
                    <path d="M161.5,60.5 L161.5,114.5" id="Line-11-Copy-11"/>
                    <path d="M161.5,144.5 L161.5,198.5" id="Line-11-Copy-10"/>
                    <path d="M201.5,30.5 L201.5,84.5" id="Line-11-Copy-13"/>
                    <path d="M201.5,114.5 L201.5,168.5" id="Line-11-Copy-12"/>
                    <path d="M241.5,0.5 L241.5,54.5" id="Line-11-Copy-15"/>
                    <path d="M241.5,84.5 L241.5,138.5" id="Line-11-Copy-14"/>
                </g>
            </g>
        </g>
    </g>
</symbol><symbol id="icon-twitter" viewBox="0 0 512 512">
<g>
	<g>
		<path d="M512,97.248c-19.04,8.352-39.328,13.888-60.48,16.576c21.76-12.992,38.368-33.408,46.176-58.016
			c-20.288,12.096-42.688,20.64-66.56,25.408C411.872,60.704,384.416,48,354.464,48c-58.112,0-104.896,47.168-104.896,104.992
			c0,8.32,0.704,16.32,2.432,23.936c-87.264-4.256-164.48-46.08-216.352-109.792c-9.056,15.712-14.368,33.696-14.368,53.056
			c0,36.352,18.72,68.576,46.624,87.232c-16.864-0.32-33.408-5.216-47.424-12.928c0,0.32,0,0.736,0,1.152
			c0,51.008,36.384,93.376,84.096,103.136c-8.544,2.336-17.856,3.456-27.52,3.456c-6.72,0-13.504-0.384-19.872-1.792
			c13.6,41.568,52.192,72.128,98.08,73.12c-35.712,27.936-81.056,44.768-130.144,44.768c-8.608,0-16.864-0.384-25.12-1.44
			C46.496,446.88,101.6,464,161.024,464c193.152,0,298.752-160,298.752-298.688c0-4.64-0.16-9.12-0.384-13.568
			C480.224,136.96,497.728,118.496,512,97.248z"/>
	</g>
</g>
<g>
</g>
<g>
</g>
<g>
</g>
<g>
</g>
<g>
</g>
<g>
</g>
<g>
</g>
<g>
</g>
<g>
</g>
<g>
</g>
<g>
</g>
<g>
</g>
<g>
</g>
<g>
</g>
<g>
</g>
</symbol></svg>