<?xml version="1.0" encoding="UTF-8"?>
<svg width="21px" height="20px" viewBox="0 0 21 20" version="1.1" xmlns="http://www.w3.org/2000/svg" xmlns:xlink="http://www.w3.org/1999/xlink">
    <!-- Generator: sketchtool 52 (66869) - http://www.bohemiancoding.com/sketch -->
    <title>CEF2DC84-F56A-4129-B207-84C4F8B785A1</title>
    <desc>Created with sketchtool.</desc>
    <g id="Page-1" stroke="none" stroke-width="1" fill="none" fill-rule="evenodd">
        <g id="Main" transform="translate(-1182.000000, -106.000000)" fill="#000000" stroke="#000000">
            <g id="Top" transform="translate(78.000000, 15.000000)">
                <g id="Group-3" transform="translate(398.000000, 89.000000)">
                    <g id="Fill-2" transform="translate(707.000000, 3.000000)">
                        <path d="M6.4224392,11.9354992 C3.38239146,11.9354992 0.90938392,9.46244397 0.90938392,6.42244397 C0.90938392,3.38239623 3.38239146,0.909340955 6.4224392,0.909340955 C9.46248693,0.909340955 11.9354945,3.38239623 11.9354945,6.42244397 C11.9354945,9.46244397 9.46248693,11.9354992 6.4224392,11.9354992 Z M11.2705422,10.6276023 C12.2499015,9.49996658 12.8448688,8.02975804 12.8448688,6.42244397 C12.8448688,2.88109221 9.96379095,-3.34170854e-05 6.4224392,-3.34170854e-05 C2.88108744,-3.34170854e-05 9.5477387e-06,2.88109221 9.5477387e-06,6.42244397 C9.5477387e-06,9.96374799 2.88108744,12.8448736 6.4224392,12.8448736 C8.02975327,12.8448736 9.50000955,12.2499063 10.6275975,11.2704992 L18.3206402,18.9636374 L18.9635849,18.3206927 L11.2705422,10.6276023 Z" id="Fill-1"></path>
                    </g>
                </g>
            </g>
        </g>
    </g>
</svg>